<svg width="590" height="370" viewBox="0 0 590 370" fill="none" xmlns="http://www.w3.org/2000/svg">
<path d="M548.471 163.963C551.588 161.18 555.404 159.289 559.305 157.79C564.936 155.628 571.767 154.368 576.633 157.933C581.176 161.261 582.284 167.754 581.124 173.267C578.482 185.813 562.195 199.325 548.707 196.04C535.257 192.765 540.814 170.8 548.471 163.963Z" fill="#1AB2BF"/>
<path d="M565.149 172.931C524.023 202.95 497.182 249.361 481.975 297.954" stroke="#3C3C3B" stroke-width="2.2486" stroke-miterlimit="10" stroke-linecap="round" stroke-linejoin="round"/>
<path d="M560.757 205.989C566.517 205.796 572.596 206.182 577.46 209.273C582.325 212.364 585.395 218.929 582.862 224.107C580.588 228.756 574.968 230.597 569.858 231.432C562.518 232.631 554.933 232.706 547.696 230.994C540.151 229.209 530.296 224.281 536.756 215.652C542.383 208.137 551.918 206.286 560.757 205.989Z" fill="#1AB2BF"/>
<path d="M496.01 176.756C494.546 182.362 494.836 188.278 495.615 194.02C496.316 199.189 497.516 204.54 500.877 208.53C504.238 212.52 510.335 214.634 514.853 212.025C517.005 210.783 518.528 208.663 519.588 206.415C522.166 200.946 522.294 194.623 521.481 188.633C520.46 181.115 517.545 173.17 511.017 169.305C503.764 165.011 497.923 169.428 496.01 176.756Z" fill="#1AB2BF"/>
<path d="M520.502 254.533C519.847 258.083 521.514 261.783 524.135 264.264C526.757 266.746 530.214 268.165 533.703 269.093C538.681 270.417 544.011 270.834 548.971 269.44C553.93 268.046 558.473 264.668 560.512 259.936C562.551 255.205 561.675 249.153 557.843 245.71C548.685 237.481 523.073 240.601 520.502 254.533Z" fill="#1AB2BF"/>
<path d="M472.153 207.12C470.775 213.677 471.918 220.73 475.295 226.517C476.801 229.098 478.786 231.474 481.375 232.966C483.965 234.458 487.217 234.97 489.991 233.86C494.395 232.097 496.41 226.94 496.847 222.216C497.521 214.929 495.523 207.424 491.315 201.438C488.79 197.844 483.569 193.241 478.779 195.73C475.404 197.485 472.87 203.7 472.153 207.12Z" fill="#1AB2BF"/>
<path d="M520.902 217.48C524.258 218.105 527.613 218.683 530.982 219.149C534.353 219.605 537.727 220.016 541.118 220.249C544.504 220.538 547.9 220.689 551.299 220.755C552.999 220.793 554.7 220.804 556.401 220.788L558.955 220.768C559.805 220.741 560.658 220.724 561.511 220.715H561.519C561.883 220.712 562.182 221.004 562.186 221.369C562.19 221.708 561.937 221.99 561.609 222.031C559.9 222.25 558.181 222.383 556.462 222.519C554.74 222.612 553.017 222.677 551.292 222.713C547.841 222.756 544.389 222.616 540.948 222.352C537.511 222.033 534.081 221.628 530.687 221.005C527.292 220.392 523.925 219.631 520.621 218.656C520.3 218.562 520.117 218.225 520.212 217.904C520.299 217.605 520.602 217.426 520.902 217.48Z" fill="#3C3C3B"/>
<path d="M515.866 222.575C514.291 219.849 512.924 217.004 511.707 214.093C510.483 211.185 509.478 208.189 508.569 205.168C507.714 202.13 506.993 199.052 506.466 195.942C506.218 194.384 506.003 192.822 505.817 191.257C505.677 189.686 505.536 188.117 505.485 186.543C505.472 186.179 505.759 185.873 506.123 185.861C506.46 185.85 506.745 186.092 506.797 186.415L506.798 186.425C506.923 187.192 507.04 187.959 507.146 188.727L507.532 191.02C507.788 192.548 508.073 194.068 508.389 195.583C509.011 198.612 509.729 201.621 510.595 204.588C511.407 207.572 512.404 210.5 513.456 213.41C514.517 216.317 515.7 219.182 516.942 222.031C517.076 222.337 516.936 222.694 516.629 222.828C516.347 222.951 516.018 222.838 515.866 222.575Z" fill="#3C3C3B"/>
<path d="M505.031 246.222C508.131 247.163 511.244 248.032 514.387 248.761C517.531 249.481 520.69 250.131 523.883 250.578C527.066 251.08 530.273 251.418 533.489 251.646L535.903 251.802L538.322 251.899L540.745 251.973C541.553 251.974 542.362 251.986 543.172 252.004H543.181C543.546 252.013 543.834 252.316 543.826 252.681C543.817 253.018 543.558 253.289 543.231 253.322C541.598 253.486 539.957 253.56 538.314 253.63L535.849 253.646L533.383 253.601C530.096 253.48 526.817 253.147 523.561 252.665C520.315 252.126 517.085 251.475 513.919 250.584C510.752 249.701 507.634 248.646 504.615 247.359C504.308 247.228 504.165 246.872 504.296 246.565C504.42 246.277 504.74 246.135 505.031 246.222Z" fill="#3C3C3B"/>
<path d="M498.138 254.952C495.588 252.1 493.502 248.84 491.807 245.409C490.099 241.978 488.836 238.353 487.774 234.697C486.766 231.024 485.994 227.3 485.394 223.563C485.109 221.692 484.848 219.82 484.606 217.948C484.402 216.07 484.176 214.2 484.017 212.321L484.016 212.315C483.985 211.951 484.254 211.632 484.618 211.601C484.96 211.571 485.263 211.812 485.323 212.142L486.318 217.693C486.634 219.543 486.967 221.388 487.321 223.225C488.021 226.9 488.794 230.553 489.806 234.13C490.765 237.722 492.002 241.226 493.506 244.605C495.019 247.981 496.87 251.201 499.075 254.189C499.274 254.458 499.217 254.836 498.948 255.035C498.696 255.222 498.344 255.18 498.138 254.952Z" fill="#3C3C3B"/>
<path d="M558.303 310.007C559.944 312.722 562.721 314.659 564.114 317.508C565.399 320.139 565.341 323.197 565.256 326.123C565.195 328.189 565.135 330.255 565.076 332.32C564.926 337.458 560.789 341.584 555.651 341.719L488.74 343.475C481.033 343.677 473.321 343.547 465.625 343.086L398.73 342.401C395.245 342.365 392.19 340.115 391.07 336.814C388.954 330.582 387.037 320.335 393.398 312.728L558.303 310.007Z" fill="#E61946"/>
<path d="M577.056 303.204C563.449 298.715 568.864 281.546 568.65 280.977C568.65 280.977 528.755 283.114 531.034 298.359C533.314 313.606 541.436 313.178 541.436 313.178C541.436 313.178 547.562 312.964 557.108 310.898C566.655 308.832 577.056 303.204 577.056 303.204Z" fill="white"/>
<path d="M540.023 275.277C548.753 274.654 557.557 275.062 566.193 276.49C569.11 276.972 572.526 278.02 573.351 280.86L540.023 289.683C540.023 289.683 532.421 291.941 533.122 302.333C533.625 309.791 536.571 317.667 577.205 302.333C577.205 302.333 581.421 301.375 581.805 303.483C581.805 303.483 577.367 309.401 542.7 316.513C541.429 316.774 540.134 316.9 538.836 316.9H437.288H394.013C388.984 316.9 384.519 313.521 383.319 308.637C382.207 304.114 381.759 298.044 384.005 291.216C384.005 291.216 383.238 279.333 405.472 278.183C427.706 277.032 540.023 275.277 540.023 275.277Z" fill="#FFAB11"/>
<path d="M530.937 290.233C519.112 290.205 507.288 290.151 495.464 290.055L459.991 289.811L424.52 289.437L406.784 289.246L389.049 288.99C388.877 288.987 388.739 288.846 388.741 288.674C388.744 288.502 388.883 288.366 389.055 288.366L406.791 288.427L424.527 288.554L460 288.815L495.471 289.205C507.295 289.32 519.119 289.478 530.942 289.661C531.1 289.664 531.226 289.794 531.223 289.952C531.222 290.107 531.093 290.233 530.937 290.233Z" fill="#3C3C3B"/>
<path d="M565.578 286.46C562.902 287.151 560.222 287.822 557.534 288.463L549.481 290.419C546.814 291.062 544.125 291.754 541.751 293.051C540.588 293.719 539.496 294.552 538.684 295.606C537.856 296.635 537.33 297.924 537.43 299.248C537.44 299.377 537.344 299.49 537.215 299.499C537.088 299.509 536.978 299.415 536.964 299.291C536.799 297.835 537.339 296.373 538.196 295.232C539.064 294.081 540.206 293.193 541.422 292.476C543.902 291.091 546.62 290.354 549.306 289.692L557.387 287.841C560.079 287.215 562.776 286.618 565.479 286.041C565.595 286.016 565.709 286.09 565.734 286.206C565.759 286.32 565.689 286.431 565.578 286.46Z" fill="#3C3C3B"/>
<path d="M568.733 302.651C566.253 303.818 563.703 304.844 561.091 305.687C558.484 306.542 555.829 307.259 553.141 307.822C550.452 308.327 547.735 308.896 544.923 308.734C543.529 308.643 542.123 308.323 540.854 307.697C539.593 307.066 538.461 306.12 537.734 304.892C537.668 304.781 537.704 304.637 537.816 304.571C537.924 304.507 538.065 304.542 538.133 304.647C538.846 305.757 539.923 306.596 541.121 307.143C542.318 307.704 543.633 307.98 544.964 308.04C547.631 308.162 550.329 307.6 552.992 307.091C558.337 306.063 563.532 304.361 568.558 302.261C568.668 302.215 568.794 302.266 568.84 302.375C568.884 302.479 568.836 302.601 568.733 302.651Z" fill="#3C3C3B"/>
<path d="M567.308 299.234C565.286 300.41 563.17 301.435 560.972 302.25C558.777 303.071 556.524 303.747 554.227 304.228C551.928 304.698 549.593 304.994 547.249 305.086C546.081 305.139 544.883 305.144 543.697 304.929C542.524 304.706 541.33 304.218 540.483 303.31C540.395 303.215 540.4 303.067 540.495 302.979C540.587 302.893 540.73 302.896 540.819 302.984C541.61 303.761 542.695 304.159 543.801 304.322C544.913 304.498 546.062 304.471 547.214 304.392C549.52 304.264 551.815 303.965 554.076 303.496C556.344 303.059 558.573 302.427 560.75 301.652C562.922 300.862 565.041 299.922 567.1 298.859C567.205 298.804 567.335 298.844 567.39 298.949C567.444 299.05 567.405 299.177 567.308 299.234Z" fill="#3C3C3B"/>
<path d="M565.165 290.159C562.998 290.912 560.764 291.492 558.499 291.879C556.238 292.278 553.968 292.552 551.735 292.959C549.503 293.343 547.292 293.867 545.232 294.752C544.224 295.194 543.261 295.785 542.508 296.57C541.748 297.335 541.218 298.358 541.327 299.432C541.341 299.561 541.246 299.676 541.117 299.689C540.992 299.701 540.88 299.613 540.862 299.49L540.861 299.483C540.679 298.247 541.258 297.021 542.057 296.151C542.871 295.265 543.881 294.616 544.947 294.117C547.077 293.161 549.346 292.619 551.607 292.223C553.876 291.847 556.149 291.609 558.392 291.248C560.632 290.881 562.851 290.385 565.034 289.749C565.148 289.716 565.267 289.781 565.301 289.895C565.333 290.006 565.272 290.121 565.165 290.159Z" fill="#3C3C3B"/>
<path d="M565.512 296.234C562.149 297.765 558.608 298.9 555.002 299.725C553.195 300.122 551.372 300.444 549.536 300.669C547.7 300.895 545.853 301.022 544.006 301.049C543.877 301.051 543.771 300.947 543.768 300.818C543.766 300.694 543.862 300.59 543.985 300.581C545.812 300.442 547.633 300.241 549.444 299.98C551.254 299.719 553.055 299.396 554.839 298.993C558.414 298.216 561.915 297.127 565.347 295.837C565.458 295.796 565.582 295.851 565.624 295.962C565.665 296.069 565.614 296.187 565.512 296.234Z" fill="#3C3C3B"/>
<path d="M543.924 297.967C547.194 296.777 550.562 295.863 553.964 295.125C555.669 294.772 557.383 294.46 559.105 294.211C560.828 293.961 562.56 293.776 564.295 293.656C564.424 293.646 564.536 293.744 564.545 293.873C564.554 293.998 564.464 294.105 564.343 294.122C562.628 294.354 560.918 294.613 559.213 294.898C557.508 295.184 555.808 295.497 554.119 295.859C550.733 296.553 547.388 297.427 544.058 298.375C543.944 298.407 543.825 298.341 543.793 298.227C543.76 298.119 543.82 298.005 543.924 297.967Z" fill="#3C3C3B"/>
<path d="M394.451 292.399C394.557 294.096 394.646 295.792 394.707 297.49L394.858 302.582C394.908 305.978 394.969 309.374 394.866 312.774C394.861 312.946 394.716 313.083 394.544 313.077C394.382 313.073 394.253 312.943 394.241 312.786C394.009 309.393 393.939 305.998 393.86 302.602L393.817 297.507C393.813 295.808 393.836 294.109 393.878 292.41C393.882 292.251 394.013 292.126 394.171 292.13C394.321 292.135 394.441 292.253 394.451 292.399Z" fill="#3C3C3B"/>
<path d="M401.561 293.11C401.58 294.674 401.582 296.24 401.556 297.805L401.446 302.498C401.321 305.624 401.206 308.753 400.929 311.872C400.914 312.044 400.763 312.171 400.59 312.155C400.43 312.141 400.309 312.008 400.306 311.851V311.841C400.248 308.709 400.352 305.587 400.447 302.462L400.666 297.778C400.749 296.217 400.861 294.657 400.989 293.097L400.99 293.09C401.003 292.933 401.141 292.815 401.299 292.828C401.447 292.84 401.56 292.964 401.561 293.11Z" fill="#3C3C3B"/>
<path d="M515.598 294.718C515.677 296.281 515.738 297.845 515.772 299.408L515.842 304.097C515.837 307.223 515.842 310.35 515.684 313.476C515.676 313.649 515.529 313.782 515.357 313.773C515.196 313.766 515.069 313.636 515.06 313.478C514.883 310.353 514.867 307.226 514.842 304.1L514.882 299.411C514.905 297.847 514.957 296.284 515.026 294.72C515.033 294.562 515.166 294.44 515.325 294.447C515.472 294.453 515.589 294.572 515.598 294.718Z" fill="#3C3C3B"/>
<path d="M507.816 295.635C507.924 297.16 508.003 298.686 508.039 300.214C508.086 301.741 508.078 303.27 508.08 304.798C508.03 307.853 507.938 310.91 507.632 313.953C507.615 314.125 507.462 314.251 507.29 314.233C507.129 314.217 507.01 314.082 507.008 313.925C506.979 310.874 507.06 307.832 507.08 304.787L507.149 300.22L507.244 295.649C507.247 295.491 507.379 295.366 507.536 295.369C507.685 295.371 507.805 295.49 507.816 295.635Z" fill="#3C3C3B"/>
<path d="M553.035 318.572C553.109 320.386 553.166 322.199 553.194 324.014L553.249 329.456C553.235 333.083 553.229 336.712 553.062 340.339C553.054 340.512 552.907 340.646 552.735 340.637C552.573 340.63 552.445 340.499 552.437 340.339C552.269 336.712 552.265 333.083 552.25 329.456L552.304 324.014C552.333 322.199 552.389 320.386 552.463 318.572C552.47 318.413 552.603 318.291 552.761 318.298C552.911 318.303 553.029 318.424 553.035 318.572Z" fill="#3C3C3B"/>
<path d="M545.758 320.182C545.861 321.879 545.947 323.577 546.003 325.275L546.144 330.371C546.186 333.77 546.239 337.169 546.129 340.568C546.123 340.741 545.979 340.876 545.806 340.871C545.643 340.865 545.514 340.738 545.504 340.581L545.503 340.573C545.279 337.178 545.216 333.783 545.144 330.388L545.113 325.294C545.113 323.595 545.141 321.896 545.187 320.197V320.191C545.19 320.033 545.322 319.908 545.481 319.912C545.629 319.916 545.749 320.036 545.758 320.182Z" fill="#3C3C3B"/>
<path d="M408.618 320.529C408.749 321.958 408.841 323.39 408.884 324.824C408.936 326.258 408.924 327.692 408.914 329.127C408.84 331.995 408.687 334.865 408.287 337.708C408.262 337.879 408.104 337.998 407.933 337.974C407.774 337.952 407.66 337.813 407.664 337.657C407.73 334.801 407.87 331.956 407.914 329.106C407.963 327.682 407.968 326.258 407.993 324.833L408.045 320.552C408.047 320.394 408.177 320.267 408.336 320.269C408.484 320.271 408.605 320.386 408.618 320.529Z" fill="#3C3C3B"/>
<path d="M415.029 320.065C415.11 321.512 415.173 322.959 415.208 324.408C415.253 325.857 415.256 327.307 415.283 328.757C415.282 331.655 415.289 334.555 415.136 337.45C415.126 337.623 414.979 337.755 414.807 337.746C414.647 337.738 414.521 337.609 414.512 337.453L414.511 337.439C414.33 334.543 414.311 331.653 414.284 328.761C414.297 327.315 414.287 325.87 414.319 324.423C414.341 322.977 414.391 321.53 414.458 320.082L414.459 320.068C414.467 319.91 414.601 319.789 414.759 319.796C414.905 319.802 415.021 319.921 415.029 320.065Z" fill="#3C3C3B"/>
<path opacity="0.62" d="M480.146 295.836C486.02 296.158 492.311 296.718 496.862 300.445C497.693 301.126 498.474 301.948 498.772 302.98C499.327 304.909 497.955 306.971 496.168 307.886C494.381 308.801 492.293 308.849 490.286 308.877C467.01 309.205 443.735 309.534 420.46 309.861C417.753 309.899 414.962 309.923 412.455 308.905C409.946 307.888 407.769 305.551 407.804 302.844C407.839 300.169 410.024 297.906 412.516 296.93C421.429 293.44 433.716 294.873 443.034 294.855C455.41 294.833 467.787 295.159 480.146 295.836Z" fill="#BF8316"/>
<path opacity="0.45" d="M533.795 329.351C534.297 331.415 533.079 333.597 531.353 334.833C529.626 336.07 527.483 336.552 525.395 336.937C515.336 338.791 505.058 339.053 494.83 339.17C482.904 339.306 470.978 339.253 459.052 339.198C449.371 339.153 439.59 339.093 430.17 336.861C427.706 336.277 425.152 335.47 423.428 333.615C421.704 331.761 421.195 328.556 422.978 326.758C423.957 325.77 425.384 325.397 426.744 325.105C437.413 322.805 448.432 322.889 459.346 322.982C475.131 323.118 490.916 323.253 506.701 323.388C512.479 323.44 531.911 321.606 533.795 329.351Z" fill="#8A0F2A"/>
<path d="M394.42 126.665C401.567 116.886 416.251 116.119 425.028 107.774C431.019 102.079 433.495 93.2785 432.545 85.0671C431.596 76.8566 427.524 69.2349 422.142 62.9612C419.337 59.6896 416.126 56.7044 412.354 54.6207C408.536 52.5116 404.233 51.3803 399.899 50.8933C393.418 50.1641 386.684 50.881 380.778 53.6448C374.87 56.4087 369.863 61.3353 367.657 67.4724C365.258 74.1427 366.271 81.4809 366.932 88.5393C367.593 95.5977 367.746 103.201 363.967 109.198L394.42 126.665Z" fill="#F9DB0E"/>
<path d="M383.606 120.462L394.42 126.664C401.567 116.885 416.251 116.118 425.028 107.773C431.018 102.078 433.495 93.2778 432.545 85.0664C431.596 76.8559 427.524 69.2342 422.142 62.9604C423.926 68.3044 425.1 73.5938 425.29 79.2241C425.48 84.8544 425.363 100.14 408.45 105.939C403.826 107.525 397.923 109.333 393.31 110.951C388.698 112.568 385.246 115.858 383.606 120.462Z" fill="#F9DB0E"/>
<path d="M382.826 121.039C385.496 112.904 391.168 105.776 398.621 101.512C399.543 100.965 400.508 100.498 401.469 100.023L402.947 99.3886C403.417 99.171 404.013 98.9666 404.626 98.9411C404.939 98.9326 405.286 98.9647 405.633 99.1352C405.982 99.3151 406.266 99.658 406.363 100.039C406.477 100.44 406.368 100.884 406.179 101.182C405.992 101.491 405.751 101.712 405.502 101.897C405.251 102.082 404.986 102.227 404.706 102.344C404.419 102.471 404.126 102.532 403.869 102.588C403.333 102.718 402.795 102.833 402.245 102.881C400.057 103.153 397.821 102.883 395.737 102.181C393.648 101.491 391.692 100.373 390.058 98.8705C388.409 97.3849 387.084 95.5217 386.285 93.3965C385.901 92.3273 385.636 91.1301 385.865 89.8536C385.996 89.2178 386.213 88.6036 386.699 88.0309C387.163 87.4836 387.768 87.1303 388.419 86.9221C389.071 86.729 389.813 86.6744 390.549 86.9617C391.296 87.2311 391.9 87.9282 392.111 88.646C392.341 89.3808 392.271 90.0807 392.144 90.6807C392.01 91.2817 391.802 91.8347 391.596 92.3254C390.804 94.3225 389.884 96.2677 388.885 98.1696C384.849 105.748 379.084 112.446 372.073 117.325L371.584 116.695C377.937 111.181 383.289 104.634 387.238 97.2888C388.22 95.4529 389.129 93.5755 389.914 91.6444C390.322 90.7175 390.598 89.767 390.407 89.1877C390.31 88.8937 390.15 88.7138 389.899 88.613C389.647 88.5047 389.271 88.5 388.914 88.597C388.155 88.8174 387.676 89.3318 387.502 90.1796C387.327 90.9944 387.476 91.9534 387.787 92.869C388.433 94.7304 389.579 96.4392 391.031 97.8286C392.472 99.236 394.239 100.32 396.146 101.012C397.094 101.383 398.092 101.592 399.094 101.763C400.102 101.869 401.123 101.933 402.131 101.81C402.639 101.778 403.137 101.681 403.632 101.572C403.893 101.521 404.122 101.479 404.322 101.392C404.532 101.309 404.735 101.203 404.913 101.078C405.286 100.825 405.487 100.49 405.421 100.288C405.387 100.153 405.307 100.056 405.19 99.9858C405.062 99.918 404.868 99.8812 404.655 99.8841C404.208 99.9001 403.775 100.02 403.284 100.235L401.833 100.823C400.885 101.26 399.945 101.716 399.043 102.243C397.23 103.281 395.512 104.484 393.91 105.829C392.32 107.188 390.855 108.692 389.527 110.308C386.842 113.524 384.854 117.297 383.589 121.277L382.826 121.039Z" fill="#3C3C3B"/>
<path d="M377.072 139.378C376.609 141.204 374.903 144.086 373.414 145.239C372.959 145.591 372.451 145.903 371.884 146.001C371.013 146.151 370.142 145.779 369.346 145.393C366.946 144.229 364.648 142.853 362.488 141.288C361.696 140.714 360.899 140.088 360.439 139.225C359.766 137.963 359.942 136.384 360.548 135.088C361.154 133.793 362.141 132.72 363.112 131.671L377.072 139.378Z" fill="#8F9FBD"/>
<path d="M364.677 109.094C362.066 107.073 361.005 107.878 359.937 108.819C359.574 109.139 359.306 109.551 359.043 109.957C357.021 113.077 355 116.197 352.978 119.318C351.791 121.151 350.352 123.519 351.466 125.399C353.838 129.405 383.457 145.173 385.125 145.653C386.792 146.132 388.698 146.079 390.134 145.106C390.896 144.59 391.478 143.854 392.028 143.115C394.176 140.231 396.042 137.137 397.589 133.89C397.951 133.13 398.303 132.333 398.304 131.491C398.305 130.759 398.038 130.048 397.682 129.408C396.816 127.845 395.392 126.599 393.727 125.947L364.677 109.094Z" fill="#BFC7D9"/>
<path d="M394.332 139.772L354.881 116.381" stroke="#3C3C3B" stroke-miterlimit="10"/>
<path opacity="0.72" d="M371.286 78.2055C371.098 73.1837 372.002 68.0282 375.162 64.1217C378.323 60.2152 382.878 57.5795 387.709 56.1995C388.843 55.8754 390.002 55.6154 391.181 55.5702C393.01 55.5005 394.654 56.9926 395.302 58.7043C395.482 59.179 395.586 59.6868 395.569 60.1945C395.526 61.372 394.821 62.4459 393.92 63.2051C393.019 63.9644 391.93 64.4589 390.86 64.9516C387.024 66.716 382.926 68.8901 381.302 72.7862C380.602 74.4639 380.44 76.3083 380.023 78.0774C379.607 79.8465 378.846 81.6608 377.338 82.6744C375.851 83.6748 371.475 83.2726 371.286 78.2055Z" fill="white"/>
<path d="M295.818 64.1961C298.413 61.6875 306.774 57.6322 310.336 57.0538C313.899 56.4764 317.799 57.4306 320.332 60.0023C321.931 61.6263 322.904 63.7674 323.6 65.9388C324.204 67.8228 324.629 69.7925 324.53 71.7688C324.262 77.1693 319.845 81.8765 314.607 83.2207C309.37 84.5649 303.633 82.8656 299.413 79.4838" fill="#F9C29B"/>
<path d="M313.302 65.5804C311.693 67.0434 310.29 68.6231 309.17 70.4063C308.039 72.1839 307.205 74.1121 306.548 76.177L306.545 76.1845C306.435 76.5293 306.066 76.7196 305.722 76.6103C305.44 76.5208 305.262 76.258 305.266 75.9764C305.3 73.6101 306.129 71.273 307.422 69.2825C308.725 67.2977 310.513 65.5927 312.647 64.5876C312.947 64.4463 313.305 64.5753 313.446 64.8749C313.561 65.1189 313.497 65.4015 313.307 65.5739L313.302 65.5804Z" fill="#3C3C3B"/>
<path d="M308.364 69.4351C309.871 69.8298 311.169 70.8736 312.07 72.15C312.963 73.4311 313.491 75.0221 313.323 76.5792C313.283 76.9438 312.955 77.2066 312.592 77.1671C312.335 77.1388 312.127 76.9673 312.043 76.7413L312.033 76.7158C311.568 75.4743 311.053 74.3608 310.357 73.3256C309.669 72.2847 308.82 71.3822 307.822 70.493L307.805 70.4779C307.555 70.2537 307.533 69.8694 307.756 69.6188C307.913 69.4427 308.15 69.3795 308.364 69.4351Z" fill="#3C3C3B"/>
<path d="M184.89 360.942L162.88 327.458L222.269 325.304V359.625L184.89 360.942Z" fill="#49C2CC"/>
<path d="M151.613 318.268L184.89 369.911V360.942L156.258 317.256L151.613 318.268Z" fill="#1AB2BF"/>
<path d="M371.409 221.143L355.974 190.871L330.477 208.319L331.586 222.673L371.409 221.143Z" fill="#F9C29B"/>
<path d="M173.4 260.273C153.717 256.201 132.479 242.948 132.479 242.948C143.567 212.144 150.893 187.434 177.216 168.002C188.373 159.766 201.555 154.692 215.284 152.737L278.789 143.695C278.789 143.695 313.543 138.653 339.878 165.416C366.299 192.266 366.29 201.247 366.29 201.247L333.556 218.821V315.972L170.416 318.039L173.4 260.273Z" fill="#512E8C"/>
<path d="M400.11 351.845L404.817 219.755L189.512 228.698L184.89 360.942L400.11 351.845Z" fill="#1AB2BF"/>
<path opacity="0.26" d="M184.89 360.942L400.11 351.844L404.817 219.754C404.817 219.754 390.09 353.538 184.89 360.942Z" fill="#00ABE0"/>
<path d="M278.789 143.694C278.789 143.694 289.929 161.909 253.245 170.271C216.561 178.633 204.851 154.861 204.851 154.861C204.851 154.861 209.717 152.571 226.247 150.361C242.777 148.151 278.789 143.694 278.789 143.694Z" fill="#F9C29B"/>
<path d="M218.875 136.164V153.338C218.875 153.338 223.495 160.256 238.935 160.357C255.836 160.467 261.355 153.003 261.355 153.003V136.164H218.875Z" fill="#F9C29B"/>
<path d="M261.355 141.424C254.587 143.254 246.762 144.855 237.717 144.855C232.476 144.855 227.653 144.441 223.213 143.674C223.213 143.674 231.204 148.703 261.355 145.326V141.424Z" fill="#3C3C3B"/>
<path d="M187.163 295.911L166.965 284.154L173.401 260.272C164.521 257.932 136.134 245.097 136.134 245.097C133.147 253.061 127.34 272.094 125.886 277.584C123.947 284.906 123.128 292.866 125.879 299.922C128.435 306.476 136.902 318.036 162.033 327.697C164.397 328.606 177.297 333.132 185.77 335.752" fill="#F9C29B"/>
<path d="M165.455 284.076C163.309 284.446 161.194 284.643 159.076 284.886C156.954 285.1 154.846 285.356 152.67 285.447C154.69 284.625 156.827 284.195 158.975 283.951C161.127 283.735 163.307 283.703 165.455 284.076Z" fill="#3C3C3B"/>
<path d="M168.422 78.0397C168.422 78.0397 170.901 151.827 240.538 145.548C313.591 138.962 300.589 71.2018 300.589 71.2018C300.589 71.2018 292.947 10.5784 243.193 5.9937C193.439 1.40898 162.995 29.9139 168.422 78.0397Z" fill="#F9C29B"/>
<path d="M170.89 80.44C167.888 78.4364 161.216 76.6211 157.607 76.6899C153.998 76.7586 150.332 78.3958 148.3 81.3782C147.017 83.2622 146.444 85.5428 146.147 87.8036C145.889 89.7658 145.824 91.7788 146.273 93.7062C147.503 98.9719 152.691 102.812 158.085 103.199C163.479 103.585 168.819 100.886 172.365 96.8035" fill="#F9C29B"/>
<path d="M156.682 84.5157C158.963 85.1223 161.026 86.4797 162.663 88.1998C164.29 89.9275 165.524 92.078 165.981 94.4001C166.051 94.7552 165.82 95.099 165.465 95.1687C165.175 95.2262 164.892 95.0821 164.761 94.8343L164.757 94.8259C163.74 92.9127 162.575 91.1643 161.144 89.6175C159.723 88.0632 158.061 86.7595 156.217 85.6084L156.21 85.6046C155.928 85.4294 155.844 85.0592 156.019 84.7776C156.161 84.5486 156.434 84.4497 156.682 84.5157Z" fill="#3C3C3B"/>
<path d="M162.487 89.4616C161.665 90.5157 160.991 91.5547 160.499 92.702C159.999 93.8456 159.693 95.0325 159.456 96.3382L159.452 96.3636C159.387 96.7244 159.041 96.9637 158.681 96.8987C158.427 96.8525 158.233 96.666 158.163 96.4342C157.718 94.9327 157.953 93.2729 158.603 91.8523C159.26 90.4356 160.351 89.1761 161.763 88.5186C162.067 88.3773 162.43 88.5092 162.571 88.8135C162.671 89.0273 162.635 89.2694 162.5 89.4437L162.487 89.4616Z" fill="#3C3C3B"/>
<path d="M211.371 80.4057C209.632 79.5899 207.802 79.0256 205.936 78.7657C204.071 78.5189 202.177 78.5311 200.346 78.8768C198.514 79.2103 196.74 79.8659 195.09 80.7589C194.262 81.2035 193.471 81.7217 192.728 82.3066C191.964 82.8681 191.27 83.519 190.594 84.1972L190.59 84.201C190.338 84.4535 189.93 84.4544 189.678 84.2029C189.455 83.9806 189.429 83.6358 189.599 83.3843C190.18 82.5242 190.885 81.7518 191.634 81.0236C192.403 80.319 193.237 79.6803 194.122 79.1161C195.896 77.9923 197.9 77.2245 199.981 76.8506C202.062 76.4898 204.206 76.5162 206.254 76.9617C208.302 77.3932 210.269 78.1995 211.964 79.3883C212.23 79.5758 212.295 79.9441 212.108 80.2107C211.942 80.4509 211.626 80.5253 211.371 80.4057Z" fill="#3C3C3B"/>
<path d="M257.587 73.5651C259.042 72.0928 260.833 70.9473 262.771 70.156C264.707 69.3516 266.811 68.9418 268.924 68.9248C271.038 68.9201 273.147 69.3177 275.093 70.1052C276.064 70.5018 276.999 70.9803 277.883 71.537C278.75 72.1192 279.582 72.7541 280.307 73.4954C280.556 73.7498 280.552 74.1586 280.296 74.4073C280.071 74.6277 279.727 74.6494 279.477 74.476L279.473 74.4732C278.687 73.9259 277.887 73.4106 277.035 72.9943C276.201 72.5515 275.328 72.1832 274.435 71.894C272.65 71.3109 270.788 70.9822 268.926 70.9822C267.062 70.969 265.198 71.2959 263.407 71.8724C261.618 72.4621 259.917 73.3438 258.353 74.4582C258.088 74.6494 257.72 74.5891 257.529 74.3244C257.358 74.0898 257.39 73.7667 257.587 73.5651Z" fill="#3C3C3B"/>
<path d="M229.928 96.0478C232.588 96.4444 235.232 96.4792 237.822 96.0562C240.416 95.6446 242.908 94.7959 245.314 93.6146L245.319 93.6118C245.639 93.4544 246.027 93.5863 246.184 93.9076C246.319 94.1807 246.242 94.5038 246.017 94.6894C243.798 96.532 241 97.6567 238.137 98.0891C235.272 98.512 232.277 98.2662 229.613 97.181C229.31 97.0576 229.164 96.7119 229.288 96.4086C229.392 96.1514 229.665 96.0082 229.928 96.0478Z" fill="#3C3C3B"/>
<path d="M237.776 82.3182C238.44 82.6319 238.937 83.2602 239.179 83.9677C239.429 84.6761 239.428 85.4975 239.125 86.2539C238.813 87.0075 238.232 87.5953 237.55 87.925C236.876 88.2604 236.068 88.3565 235.366 88.1021C235.025 87.9787 234.849 87.6029 234.973 87.2619C235.046 87.0584 235.211 86.9133 235.404 86.8559L235.51 86.8248C236.341 86.5836 236.963 86.0457 237.228 85.457C237.494 84.8682 237.463 84.0138 237.034 83.231L236.99 83.1529C236.83 82.8608 236.937 82.4944 237.229 82.3352C237.404 82.2391 237.608 82.2401 237.776 82.3182Z" fill="#3C3C3B"/>
<path d="M170.438 82.6892C171.151 89.8013 174.788 96.5008 180.293 100.94C185.75 105.44 192.978 107.635 199.972 106.926C206.964 106.248 213.607 102.76 218.063 97.3496C222.555 91.9726 224.765 84.8087 224.097 77.8511C223.764 74.377 222.795 70.966 221.177 67.8725C219.569 64.7781 217.342 62.0029 214.666 59.7534C209.314 55.2441 202.169 52.9446 195.16 53.5494C188.149 54.1108 181.435 57.5652 176.863 62.9638C172.261 68.336 169.915 75.579 170.512 82.6817L170.438 82.6892ZM168.758 82.8409C167.985 75.2983 170.343 67.4684 175.206 61.5818C177.626 58.6381 180.627 56.1578 184.007 54.3652C187.383 52.565 191.123 51.4469 194.936 51.072C198.75 50.7102 202.646 51.0917 206.321 52.2184C210.002 53.3337 213.443 55.2158 216.406 57.6678C222.35 62.5672 226.236 69.9035 226.9 77.5968C227.23 81.4354 226.81 85.341 225.649 89.0148C224.492 92.6895 222.604 96.1269 220.133 99.0753C217.659 102.021 214.605 104.475 211.193 106.25C207.787 108.036 204.015 109.098 200.197 109.423C192.547 110.084 184.702 107.575 178.9 102.608C173.078 97.6642 169.391 90.375 168.832 82.8334L168.758 82.8409Z" fill="#3C3C3B"/>
<path d="M244.308 74.5901C244.706 78.117 245.777 81.5458 247.454 84.6403C249.132 87.7348 251.423 90.4835 254.143 92.6897C259.564 97.1463 266.733 99.3082 273.662 98.5941C280.588 97.9074 287.161 94.455 291.571 89.0941C296.016 83.7671 298.198 76.6757 297.532 69.7906C297.199 66.3523 296.247 62.9762 294.647 59.9147C293.057 56.8504 290.854 54.1025 288.206 51.8747C282.909 47.4096 275.841 45.1206 268.893 45.7093C261.945 46.2566 255.285 49.6695 250.738 55.0163C246.161 60.3386 243.816 67.5232 244.395 74.5826L244.308 74.5901ZM242.297 74.7719C241.506 67.186 243.866 59.2977 248.755 53.3612C251.188 50.392 254.205 47.8863 257.611 46.0767C261.012 44.2586 264.781 43.1264 268.625 42.7439C272.47 42.3746 276.399 42.7543 280.109 43.8875C283.824 45.0075 287.296 46.9066 290.288 49.3794C296.287 54.3192 300.217 61.7224 300.886 69.4892C301.218 73.3627 300.793 77.3059 299.618 81.0127C298.449 84.7213 296.542 88.1888 294.048 91.1618C291.55 94.1328 288.467 96.6075 285.025 98.3954C281.588 100.197 277.78 101.263 273.93 101.585C266.216 102.242 258.31 99.7001 252.473 94.6896C246.623 89.7026 242.887 82.3578 242.384 74.7634L242.297 74.7719Z" fill="#3C3C3B"/>
<path d="M242.738 75.4368C241.418 74.8367 239.908 74.3224 238.474 74.1142C237.024 73.9088 235.583 73.8909 234.191 74.2093C233.841 74.2734 233.501 74.3968 233.155 74.4825C232.803 74.556 232.47 74.6982 232.137 74.8489C231.804 74.994 231.449 75.0873 231.125 75.2691C230.803 75.4528 230.476 75.6308 230.14 75.7975C229.796 75.9473 229.493 76.1828 229.174 76.3929L228.202 77.0193C227.574 77.4828 226.968 77.9877 226.287 78.438L224.711 77.009C225.22 76.2921 225.774 75.596 226.361 74.9196C227.032 74.3224 227.645 73.6451 228.416 73.1383C229.885 72.0295 231.664 71.2722 233.525 70.8662C235.402 70.4903 237.372 70.6128 239.167 71.1431C240.981 71.6829 242.578 72.5608 243.957 73.9145L242.738 75.4368Z" fill="#3C3C3B"/>
<path d="M301.464 49.6213C302.673 54.6968 302.732 60.1623 300.828 65.0193C300.553 65.721 300.12 66.501 299.374 66.6046C298.353 66.7459 278.59 51.7408 274.318 46.1161C276.474 51.0221 276.474 51.0221 278.629 55.9271C265.555 61.7015 250.506 60.5627 236.464 57.8987C227.736 56.2426 219.018 54.0054 211.157 49.8691C203.295 45.7328 196.288 39.541 192.455 31.5274C191.895 50.3212 183.49 68.759 169.671 81.509C161.074 65.6777 160.602 46.1632 170.071 30.836C169.568 29.2346 169.625 26.8428 169.122 25.2414C170.657 25.7209 172.307 25.833 173.893 25.5664C173.918 23.9848 173.943 22.4041 173.968 20.8225C176.22 22.1121 178.857 20.0915 180.773 18.3422C194.211 6.07549 212.858 0.134296 231.052 0.0457477C289.324 -0.234968 300.255 44.5458 301.464 49.6213Z" fill="#3C3C3B"/>
<path d="M400.11 351.845L184.89 360.942V369.911L400.11 360.942V351.845Z" fill="#49C2CC"/>
<path d="M84.0324 145.525C115.251 138.154 134.583 106.87 127.211 75.6506C119.84 44.4316 88.5561 25.0995 57.3375 32.4712C26.1188 39.8429 6.78691 71.1269 14.1585 102.346C21.5301 133.565 52.8137 152.897 84.0324 145.525Z" fill="#E61946"/>
<path d="M82.5939 139.432C110.448 132.855 127.696 104.943 121.119 77.089C114.542 49.2349 86.63 31.9865 58.7763 38.5637C30.9225 45.1408 13.6743 73.0529 20.2514 100.907C26.8284 128.761 54.7401 146.009 82.5939 139.432Z" fill="#FFFBFA"/>
<path d="M66.9719 89.0103C66.9719 90.5608 68.2285 91.8174 69.7791 91.8174C71.3296 91.8174 72.5862 90.5608 72.5862 89.0103C72.5862 87.4597 71.3296 86.2031 69.7791 86.2031C68.2285 86.2031 66.9719 87.4607 66.9719 89.0103Z" fill="#61ABDF"/>
<path d="M23.7969 87.9307C23.7969 89.4812 25.0535 90.7378 26.604 90.7378C28.1545 90.7378 29.4102 89.4812 29.4102 87.9307C29.4102 86.3802 28.1536 85.1235 26.604 85.1235C25.0535 85.1235 23.7969 86.3811 23.7969 87.9307Z" fill="#61ABDF"/>
<path d="M66.9719 45.1143C66.9719 46.6648 68.2285 47.9214 69.7791 47.9214C71.3296 47.9214 72.5862 46.6648 72.5862 45.1143C72.5862 43.5638 71.3296 42.3071 69.7791 42.3071C68.2285 42.3071 66.9719 43.5638 66.9719 45.1143Z" fill="#61ABDF"/>
<path d="M110.376 89.0103C110.376 90.5608 111.633 91.8174 113.183 91.8174C114.734 91.8174 115.99 90.5608 115.99 89.0103C115.99 87.4597 114.734 86.2031 113.183 86.2031C111.633 86.2031 110.376 87.4607 110.376 89.0103Z" fill="#61ABDF"/>
<path d="M66.9719 131.124C66.9719 132.674 68.2285 133.931 69.7791 133.931C71.3296 133.931 72.5862 132.674 72.5862 131.124C72.5862 129.573 71.3296 128.316 69.7791 128.316C68.2285 128.316 66.9719 129.573 66.9719 131.124Z" fill="#61ABDF"/>
<path d="M52.8807 68.4416C55.2488 71.9383 57.8289 75.2673 60.4015 78.602C63.0344 81.8886 65.654 85.1866 68.513 88.2952C68.7325 88.5345 69.1055 88.5495 69.3438 88.33C69.5614 88.1303 69.5934 87.8044 69.4333 87.568C67.068 84.0694 64.4634 80.7592 61.8729 77.4386C59.2231 74.1652 56.5789 70.8861 53.7228 67.7756C53.5222 67.5561 53.1812 67.542 52.9617 67.7426C52.7629 67.9254 52.7328 68.224 52.8807 68.4416Z" fill="#61ABDF"/>
<path d="M69.2412 91.8176C68.9303 94.1669 68.8898 96.5163 68.8408 98.8666C68.8681 101.216 68.8776 103.566 69.1922 105.915C69.2355 106.239 69.5332 106.466 69.8572 106.422C70.1276 106.387 70.3301 106.173 70.365 105.915C70.6786 103.565 70.689 101.216 70.7154 98.8666C70.6664 96.5172 70.6259 94.1679 70.315 91.8176C70.2755 91.5208 70.0032 91.3127 69.7065 91.3513C69.4597 91.3843 69.2732 91.5811 69.2412 91.8176Z" fill="#61ABDF"/>
<path d="M46.0674 48.1838C46.2859 49.2106 46.7418 50.1036 47.1893 51.0023C47.7036 51.8633 48.2029 52.7328 48.9668 53.4534C49.2146 53.6861 49.6027 53.6748 49.8353 53.427C49.9785 53.2763 50.0284 53.0681 49.9898 52.8788C49.7732 51.8511 49.2909 50.9722 48.8246 50.0839C48.2905 49.2332 47.7648 48.3788 47.0028 47.6573C46.7776 47.4434 46.4216 47.4529 46.2077 47.6789C46.0777 47.8183 46.0316 48.0096 46.0674 48.1838Z" fill="#61ABDF"/>
<path d="M29.1227 65.1656C29.848 65.9946 30.7193 66.5937 31.585 67.2022C32.4912 67.7448 33.3889 68.3025 34.4496 68.603C34.7746 68.6953 35.1128 68.506 35.2051 68.181C35.2635 67.9756 35.207 67.7627 35.0779 67.612C34.3545 66.7812 33.4671 66.2065 32.5901 65.6178C31.6717 65.094 30.757 64.5618 29.6992 64.2585C29.4024 64.1737 29.0916 64.3452 29.0059 64.6428C28.9512 64.8312 29.003 65.0281 29.1227 65.1656Z" fill="#61ABDF"/>
<path d="M92.1963 47.6573C91.4343 48.3798 90.9096 49.2342 90.3755 50.0839C89.9092 50.9712 89.4269 51.8501 89.2102 52.8788C89.1405 53.2113 89.3534 53.5373 89.685 53.607C89.8875 53.6493 90.0919 53.5844 90.2332 53.4534C90.9981 52.7328 91.4964 51.8633 92.0108 51.0023C92.4582 50.1037 92.9141 49.2097 93.1336 48.1839C93.1986 47.8796 93.0046 47.581 92.7003 47.516C92.5138 47.4764 92.3263 47.5367 92.1963 47.6573Z" fill="#61ABDF"/>
<path d="M109.503 64.2585C108.444 64.5618 107.53 65.094 106.612 65.6178C105.735 66.2066 104.847 66.7812 104.123 67.612C103.902 67.8673 103.928 68.2535 104.183 68.4749C104.344 68.6152 104.561 68.6548 104.752 68.6021C105.813 68.3016 106.711 67.7439 107.618 67.2013C108.483 66.5937 109.354 65.9937 110.079 65.1647C110.284 64.932 110.259 64.5778 110.026 64.3744C109.879 64.2472 109.679 64.2095 109.503 64.2585Z" fill="#61ABDF"/>
<path d="M47.0036 128.58C47.7657 127.858 48.2913 127.003 48.8254 126.154C49.2917 125.266 49.774 124.386 49.9907 123.359C50.0604 123.027 49.8475 122.7 49.515 122.63C49.3115 122.587 49.108 122.653 48.9667 122.785C48.2018 123.506 47.7026 124.375 47.1892 125.236C46.7417 126.135 46.2858 127.029 46.0673 128.055C46.0023 128.359 46.1954 128.658 46.4996 128.722C46.6862 128.762 46.8736 128.701 47.0036 128.58Z" fill="#61ABDF"/>
<path d="M29.6964 111.979C30.7561 111.676 31.6689 111.144 32.5873 110.62C33.4653 110.03 34.3526 109.457 35.0761 108.625C35.2974 108.369 35.2711 107.983 35.0167 107.762C34.8556 107.622 34.639 107.582 34.4468 107.635C33.3861 107.935 32.4894 108.493 31.5822 109.036C30.7165 109.644 29.8461 110.244 29.1199 111.072C28.9164 111.305 28.94 111.659 29.1726 111.862C29.3215 111.991 29.5212 112.028 29.6964 111.979Z" fill="#61ABDF"/>
<path d="M93.1328 128.054C92.9133 127.027 92.4573 126.133 92.0108 125.234C91.4956 124.373 90.9973 123.504 90.2324 122.783C89.9846 122.55 89.5956 122.562 89.3629 122.809C89.2207 122.959 89.1708 123.167 89.2094 123.357C89.426 124.384 89.9083 125.264 90.3746 126.152C90.9087 127.001 91.4334 127.857 92.1945 128.578C92.4206 128.792 92.7767 128.783 92.9905 128.558C93.1215 128.419 93.1686 128.228 93.1328 128.054Z" fill="#61ABDF"/>
<path d="M110.078 111.072C109.353 110.243 108.482 109.644 107.616 109.036C106.71 108.493 105.812 107.935 104.751 107.635C104.426 107.542 104.087 107.732 103.996 108.057C103.938 108.262 103.994 108.475 104.123 108.626C104.847 109.457 105.734 110.031 106.612 110.621C107.53 111.146 108.444 111.677 109.503 111.98C109.799 112.065 110.109 111.893 110.195 111.596C110.249 111.406 110.197 111.211 110.078 111.072Z" fill="#61ABDF"/>
<path opacity="0.24" d="M73.4367 63.0846C74.5097 65.0986 76.2052 66.6981 77.5947 68.5096C81.2816 73.3138 82.7351 79.7636 81.4662 85.685C80.1974 91.6065 76.2278 96.8939 70.8962 99.7661C65.2367 102.814 58.5477 103.106 52.3654 104.864C46.1831 106.623 39.7804 110.852 39.0956 117.244C38.5652 122.191 41.817 126.97 46.0908 129.517C50.3646 132.065 55.4805 132.759 60.4524 132.964C71.7515 133.43 83.3276 131.561 93.2807 126.192C103.233 120.823 111.416 111.716 114.338 100.792C115.495 96.4662 115.825 91.9531 115.733 87.4767C115.597 80.9214 114.516 74.2454 111.367 68.4935C106.867 60.2737 96.3742 50.3874 87.2227 47.9259C78.4481 45.5671 68.3896 53.6137 73.4367 63.0846Z" fill="#D9D9D9"/>
<path d="M364.186 31.2854C364.917 31.9806 365.521 32.7455 366.081 33.533C366.649 34.3168 367.15 35.1363 367.616 35.9737C368.081 36.8131 368.505 37.6731 368.86 38.5718C369.223 39.4648 369.536 40.3851 369.713 41.3789C369.833 42.0506 369.385 42.6911 368.714 42.8108C368.313 42.8824 367.92 42.7467 367.645 42.4886C366.914 41.7915 366.321 41.0229 365.777 40.225C365.225 39.4328 364.742 38.6038 364.3 37.7532C363.861 36.9007 363.455 36.0303 363.115 35.1241C362.769 34.2216 362.465 33.2966 362.29 32.3018C362.182 31.6858 362.594 31.0998 363.209 30.9915C363.575 30.9274 363.935 31.0499 364.186 31.2854Z" fill="#FFAB11"/>
<path d="M388.782 20.2308C389.161 21.3594 389.394 22.4954 389.579 23.6352C389.772 24.7741 389.89 25.9167 389.968 27.0622C390.044 28.2077 390.074 29.3551 390.025 30.5071C389.988 31.6582 389.892 32.8131 389.642 33.9765C389.501 34.6331 388.854 35.0513 388.197 34.91C387.762 34.8168 387.431 34.4993 387.298 34.1056C386.921 32.977 386.698 31.84 386.533 30.6993C386.357 29.5595 386.261 28.4159 386.21 27.2685C386.162 26.1221 386.152 24.9729 386.219 23.8199C386.276 22.6669 386.383 21.512 386.635 20.3486C386.765 19.7466 387.359 19.3651 387.96 19.4951C388.358 19.5827 388.66 19.8719 388.782 20.2308Z" fill="#FFAB11"/>
<path d="M427.493 34.1264C427.453 35.1909 427.226 36.213 426.911 37.2039C426.604 38.1987 426.183 39.1529 425.689 40.0667C425.194 40.9795 424.618 41.8499 423.944 42.644C423.28 43.4437 422.535 44.1813 421.649 44.7757C421.085 45.1535 420.323 45.0037 419.946 44.4413C419.717 44.1003 419.682 43.6868 419.814 43.3288L419.825 43.2987C420.179 42.3623 420.608 41.5155 421.048 40.6837C421.479 39.8462 421.938 39.038 422.404 38.2307C422.872 37.4244 423.34 36.618 423.845 35.8183C424.341 35.0138 424.85 34.2065 425.465 33.4124L425.478 33.3954C425.859 32.9037 426.566 32.8142 427.057 33.1948C427.353 33.4237 427.503 33.7779 427.493 34.1264Z" fill="#FFAB11"/>
<path d="M458.483 62.0793C457.665 62.961 456.719 63.6854 455.72 64.3203C454.726 64.9646 453.663 65.4969 452.567 65.9434C451.47 66.388 450.334 66.7394 449.17 66.9617C448.009 67.1943 446.822 67.3177 445.62 67.2311C444.951 67.183 444.447 66.6018 444.495 65.9321C444.526 65.4931 444.787 65.1248 445.152 64.9373L445.173 64.927C446.183 64.4107 447.189 64.0019 448.193 63.6044C449.192 63.1965 450.192 62.8197 451.193 62.441L454.214 61.3125C455.231 60.9385 456.255 60.5617 457.35 60.2527L457.367 60.248C457.96 60.0813 458.575 60.4261 458.741 61.0186C458.848 61.4067 458.737 61.8052 458.483 62.0793Z" fill="#FFAB11"/>
<path d="M458.558 101.803C457.512 101.957 456.49 101.965 455.476 101.926C454.459 101.895 453.456 101.789 452.457 101.644C451.46 101.497 450.47 101.305 449.492 101.036C448.512 100.777 447.542 100.459 446.596 99.99C445.989 99.6886 445.74 98.951 446.042 98.3434C446.227 97.9704 446.584 97.7311 446.967 97.6737C448.011 97.5229 449.032 97.5248 450.044 97.5832C451.058 97.6313 452.058 97.7575 453.051 97.9299C454.044 98.1042 455.031 98.3161 456.006 98.6044C456.982 98.8832 457.951 99.2101 458.896 99.682C459.453 99.9599 459.679 100.636 459.401 101.193C459.233 101.531 458.907 101.75 458.558 101.803Z" fill="#FFAB11"/>
<path d="M439.582 130.247C438.51 130.007 437.514 129.563 436.579 129.019C435.638 128.482 434.773 127.819 433.98 127.082C433.19 126.342 432.476 125.517 431.883 124.609C431.283 123.709 430.786 122.735 430.496 121.671C430.318 121.019 430.702 120.347 431.355 120.169C431.754 120.059 432.161 120.162 432.457 120.407L432.49 120.434C433.26 121.079 433.931 121.745 434.597 122.405L436.583 124.364L438.586 126.318C439.264 126.974 439.955 127.627 440.635 128.372L440.656 128.395C441.073 128.853 441.041 129.563 440.583 129.98C440.305 130.236 439.925 130.321 439.582 130.247Z" fill="#FFAB11"/>
<path d="M46.8766 181.94C44.5584 178.919 41.4649 176.579 38.2273 174.575C33.554 171.683 27.6544 169.395 22.6939 171.76C18.0621 173.968 15.9681 179.591 16.0707 184.722C16.3043 196.401 28.5869 211.26 41.2181 210.61C53.8125 209.962 52.569 189.358 46.8766 181.94Z" fill="#79C29D"/>
<path d="M30.4258 187.134C62.1378 220.986 78.2788 267.085 83.6378 313.159" stroke="#3C3C3B" stroke-width="2.0484" stroke-miterlimit="10" stroke-linecap="round" stroke-linejoin="round"/>
<path d="M28.7424 217.468C23.6198 216.317 18.113 215.63 13.2344 217.57C8.35584 219.511 4.4918 224.866 5.87935 229.93C7.12561 234.478 11.844 237.08 16.2742 238.695C22.6402 241.015 29.4159 242.37 36.1841 242.067C43.2415 241.752 52.8978 239.013 48.5816 230.193C44.8231 222.51 36.6033 219.234 28.7424 217.468Z" fill="#79C29D"/>
<path d="M91.6587 202.298C92.0167 207.564 90.7535 212.811 89.0805 217.818C87.5743 222.325 85.5914 226.911 81.9063 229.911C78.2213 232.912 72.4054 233.769 68.8042 230.667C67.0888 229.189 66.0856 227.033 65.5185 224.841C64.1395 219.51 65.0994 213.828 66.8449 208.604C69.035 202.05 72.9942 195.432 79.493 193.082C86.7142 190.469 91.1906 195.414 91.6587 202.298Z" fill="#79C29D"/>
<path d="M56.5282 267.753C56.5112 271.041 54.3918 274.07 51.6242 275.845C48.8566 277.621 45.521 278.304 42.241 278.542C37.5603 278.882 32.7194 278.351 28.5163 276.261C24.314 274.171 20.8221 270.376 19.801 265.795C18.7789 261.214 20.5913 255.947 24.6061 253.515C34.1993 247.704 56.5941 254.846 56.5282 267.753Z" fill="#79C29D"/>
<path d="M107.855 233.526C107.974 239.628 105.754 245.748 101.749 250.353C99.9625 252.408 97.7818 254.196 95.2111 255.092C92.6404 255.988 89.6421 255.895 87.3474 254.429C83.7047 252.103 82.7778 247.146 83.1885 242.843C83.8225 236.207 86.8849 229.83 91.6683 225.186C94.5395 222.398 99.9936 219.164 103.858 222.206C106.582 224.351 107.794 230.343 107.855 233.526Z" fill="#79C29D"/>
<path d="M62.5155 235.621C59.3918 235.933 56.2494 236.042 53.1069 236.015C49.9635 235.996 46.8238 235.776 43.6936 235.478C40.569 235.129 37.4548 234.668 34.3736 234.044C31.2951 233.41 28.2431 232.648 25.2551 231.682C24.9386 231.579 24.7653 231.24 24.8679 230.924C24.9631 230.629 25.2692 230.459 25.566 230.521C28.6058 231.168 31.6437 231.784 34.7004 232.292C37.7544 232.809 40.8196 233.252 43.8989 233.567C46.9736 233.934 50.0643 234.139 53.1578 234.303C56.2522 234.46 59.3542 234.511 62.4627 234.522C62.767 234.523 63.0128 234.77 63.0119 235.075C63.0119 235.358 62.7924 235.592 62.5155 235.621Z" fill="#3C3C3B"/>
<path d="M65.2322 239.264C66.8279 236.925 68.3737 234.562 69.8168 232.14C71.2524 229.714 72.6428 227.262 73.8759 224.73C75.1551 222.222 76.3081 219.651 77.38 217.045C78.4614 214.442 79.4298 211.792 80.3596 209.119C80.4688 208.805 80.8117 208.638 81.1254 208.747C81.4174 208.849 81.5813 209.153 81.5154 209.448C80.8852 212.248 80.0308 214.996 79.0408 217.694C78.0413 220.389 76.8733 223.021 75.5922 225.594C74.2658 228.145 72.8566 230.655 71.2675 233.05C69.6859 235.448 67.9781 237.763 66.1054 239.935C65.9066 240.166 65.5581 240.191 65.3282 239.993C65.1125 239.808 65.0758 239.492 65.2322 239.264Z" fill="#3C3C3B"/>
<path d="M71.9637 264.028C69.0426 264.667 66.0725 265.082 63.0883 265.334C60.1031 265.595 57.1019 265.629 54.1055 265.559C51.1099 265.439 48.1191 265.179 45.1566 264.731C42.1959 264.272 39.2597 263.657 36.3895 262.81C36.0711 262.716 35.8883 262.381 35.9825 262.062C36.0701 261.765 36.3697 261.588 36.6674 261.64C39.5706 262.163 42.4757 262.63 45.3949 262.962C48.3122 263.305 51.2399 263.547 54.1742 263.638C57.1076 263.78 60.0456 263.735 62.9818 263.624C65.9189 263.505 68.8523 263.256 71.7875 262.94C72.0899 262.907 72.3622 263.125 72.3951 263.429C72.4243 263.711 72.234 263.967 71.9637 264.028Z" fill="#3C3C3B"/>
<path d="M75.7646 271.084C78.2458 268.783 80.45 266.215 82.3764 263.451C84.2971 260.683 85.9993 257.757 87.4679 254.705C88.9816 251.675 90.2938 248.537 91.5439 245.366C92.8042 242.198 93.9714 238.983 95.2148 235.786C95.3354 235.476 95.6839 235.322 95.9938 235.443C96.2849 235.556 96.4375 235.873 96.3546 236.168C95.4164 239.471 94.3755 242.749 93.2131 245.996C92.0412 249.24 90.7168 252.44 89.1908 255.558C87.6195 258.649 85.874 261.679 83.7621 264.459C81.6624 267.242 79.2415 269.806 76.4749 271.926C76.2328 272.111 75.8871 272.065 75.7024 271.823C75.5272 271.596 75.5592 271.275 75.7646 271.084Z" fill="#3C3C3B"/>
<path d="M52.1574 364.116C48.1182 363.834 43.5693 363.291 41.1098 360.074C39.6007 358.099 39.2239 355.511 38.9018 353.047C36.0042 330.879 33.5164 308.656 31.4421 286.396H107.343C105.269 308.656 102.781 330.879 99.8833 353.047C99.5611 355.511 99.1843 358.099 97.6753 360.074C95.2157 363.291 90.6669 363.834 86.6276 364.116H52.1574Z" fill="#F9DB0E"/>
<path d="M52.1572 364.116H86.6274C90.6667 363.834 95.2155 363.291 97.6751 360.074C99.1841 358.099 99.5609 355.511 99.8831 353.047C102.781 330.879 105.268 308.656 107.343 286.396H93.7281C93.7281 286.396 105.094 360.61 52.1572 364.116Z" fill="#F9DB0E"/>
<path d="M34.6167 296.35C33.4853 296.387 32.3502 296.272 31.2434 296.009C30.4455 295.818 29.6053 295.508 29.123 294.78C28.6454 294.059 28.6275 293.097 28.6284 292.202C28.6303 290.033 28.6322 287.863 28.6341 285.694C28.635 284.887 28.6398 284.058 28.9101 283.31C29.4188 281.904 30.926 281.042 32.2551 281.394L107.726 280.125C109.061 279.792 110.555 280.678 111.043 282.09C111.303 282.842 111.296 283.671 111.284 284.478C111.254 286.647 111.224 288.816 111.193 290.986C111.181 291.881 111.148 292.843 110.66 293.557C110.167 294.277 109.322 294.575 108.521 294.753C107.412 295 106.275 295.098 105.143 295.043L34.6167 296.35Z" fill="#D1B61A"/>
<path d="M423.378 190.14L433.07 245.761L449.516 242.928L438.333 184.38L423.378 190.14Z" fill="#8CD2F5"/>
<path d="M426.711 187.315C426.82 188.061 438.991 244.055 438.991 244.055" stroke="#3C3C3B" stroke-width="0.9533" stroke-miterlimit="10"/>
<path d="M433.487 185.624L445.028 242.874" stroke="#3C3C3B" stroke-width="0.9533" stroke-miterlimit="10"/>
<path d="M438.299 184.349C431.052 174.612 428.521 172.66 428.272 172.347C427.457 171.326 426.11 172.072 425.842 172.55C425.575 173.028 423.557 185.274 423.379 190.18C423.81 190.804 424.329 191.201 425.082 191.122C425.837 191.043 426.529 190.528 426.821 189.829C427.577 190.336 428.418 190.812 429.327 190.796C430.237 190.779 431.19 190.077 431.157 189.168C431.804 189.712 433.014 189.814 433.761 189.418C434.508 189.023 434.974 188.152 434.888 187.312C435.444 187.594 436.239 187.685 436.778 187.371C437.318 187.058 437.708 186.527 437.938 185.948C438.165 185.382 438.365 184.955 438.299 184.349Z" fill="#FAD5CC"/>
<path d="M429.893 173.977C428.859 172.878 428.373 172.474 428.272 172.346C427.457 171.325 426.11 172.071 425.842 172.549C425.76 172.695 425.515 173.941 425.208 175.741C425.208 175.741 426.942 177.202 428.238 176.433C429.535 175.663 429.893 173.977 429.893 173.977Z" fill="#3C3C3B"/>
<path opacity="0.31" d="M433.356 195.521C432.62 197.019 432.809 198.785 433.015 200.442C433.609 205.2 434.202 209.958 434.796 214.715C435.13 217.398 435.468 220.096 436.268 222.678C436.649 223.906 437.3 225.257 438.545 225.572C439.731 225.873 440.97 225.028 441.518 223.934C442.067 222.841 442.086 221.566 442.061 220.342C441.942 214.232 441.045 208.173 439.97 202.168C439.598 200.088 439.609 195.789 437.954 194.268C436.513 192.94 434.196 193.811 433.356 195.521Z" fill="white"/>
<path d="M443.565 186.004L440.766 242.395L457.433 243.254L459.42 183.681L443.565 186.004Z" fill="#C361A2"/>
<path d="M447.437 183.984C447.38 184.735 446.917 242.035 446.917 242.035" stroke="#3C3C3B" stroke-width="0.9533" stroke-miterlimit="10"/>
<path d="M454.419 183.827L453.067 242.213" stroke="#3C3C3B" stroke-width="0.9533" stroke-miterlimit="10"/>
<path d="M459.42 183.681C454.498 172.586 452.458 170.016 452.283 169.656C451.713 168.48 450.235 168.911 449.869 169.319C449.502 169.726 444.837 181.228 443.582 185.973C443.865 186.676 444.283 187.179 445.036 187.268C445.789 187.356 446.578 187.007 447.017 186.389C447.643 187.05 448.358 187.7 449.249 187.885C450.14 188.068 451.224 187.594 451.393 186.7C451.903 187.373 453.061 187.739 453.877 187.517C454.693 187.297 455.339 186.55 455.441 185.711C455.921 186.109 456.676 186.372 457.271 186.185C457.866 185.999 458.364 185.566 458.717 185.052C459.063 184.551 459.352 184.286 459.42 183.681Z" fill="#FAD5CC"/>
<path d="M453.506 171.604C452.739 170.303 452.355 169.804 452.283 169.656C451.713 168.48 450.235 168.911 449.869 169.319C449.757 169.443 449.243 170.605 448.547 172.293C448.547 172.293 449.916 174.1 451.35 173.635C452.785 173.171 453.506 171.604 453.506 171.604Z" fill="#3C3C3B"/>
<path opacity="0.31" d="M452.113 193.451C451.064 194.75 450.86 196.515 450.697 198.177C450.228 202.948 449.759 207.72 449.289 212.491C449.025 215.181 448.76 217.888 448.972 220.584C449.073 221.865 449.41 223.326 450.555 223.908C451.646 224.462 453.04 223.911 453.817 222.965C454.593 222.02 454.892 220.78 455.138 219.581C456.368 213.596 456.827 207.488 457.102 201.393C457.197 199.282 458.156 195.091 456.876 193.243C455.76 191.63 453.308 191.968 452.113 193.451Z" fill="white"/>
<path d="M464.458 191.254L448.149 245.307L464.117 250.159L480.407 192.822L464.458 191.254Z" fill="#1AB2BF"/>
<path d="M468.704 190.228C468.466 190.943 454.206 246.44 454.206 246.44" stroke="#3C3C3B" stroke-width="0.9533" stroke-miterlimit="10"/>
<path d="M475.518 191.757L460.131 248.096" stroke="#3C3C3B" stroke-width="0.9533" stroke-miterlimit="10"/>
<path d="M480.407 192.822C478.304 180.868 477.325 177.347 477.242 176.956C476.972 175.678 475.433 175.74 474.979 176.047C474.525 176.354 466.82 186.951 464.458 191.255C464.564 192.006 465.253 192.034 465.962 192.302C466.672 192.569 467.521 192.421 468.097 191.926C468.544 192.718 469.081 193.522 469.902 193.916C470.722 194.309 471.889 194.11 472.269 193.283C472.603 194.059 473.638 194.693 474.483 194.676C475.328 194.659 476.135 194.09 476.436 193.3C476.807 193.802 477.475 194.24 478.098 194.201C478.721 194.163 479.308 193.864 479.775 193.45C480.231 193.044 480.193 193.393 480.407 192.822Z" fill="#FAD5CC"/>
<path d="M477.959 179.14C477.528 177.693 477.276 177.115 477.242 176.955C476.972 175.677 475.433 175.739 474.979 176.046C474.841 176.14 474.062 177.143 472.98 178.614C472.98 178.614 473.873 180.697 475.378 180.592C476.882 180.486 477.959 179.14 477.959 179.14Z" fill="#3C3C3B"/>
<path opacity="0.31" d="M470.958 200.542C469.628 201.549 469.003 203.214 468.445 204.787C466.839 209.305 465.233 213.822 463.628 218.34C462.723 220.887 461.813 223.45 461.369 226.117C461.158 227.385 461.134 228.883 462.105 229.725C463.03 230.525 464.516 230.327 465.497 229.596C466.479 228.866 467.067 227.734 467.596 226.63C470.232 221.118 472.15 215.3 473.886 209.452C474.487 207.427 476.427 203.59 475.631 201.487C474.937 199.654 472.475 199.391 470.958 200.542Z" fill="white"/>
<path d="M482.216 218.583C479.012 236.016 475.809 253.45 472.605 270.883C472.15 273.359 471.67 275.903 470.326 278.031C468.982 280.16 466.552 281.802 464.059 281.459L440.508 282.311C438.015 282.654 435.584 281.012 434.241 278.883C432.897 276.754 432.416 274.21 431.961 271.735C428.758 254.301 425.555 236.868 422.351 219.434L482.216 218.583Z" fill="#6776B7"/>
<path opacity="0.45" d="M440.507 282.311L464.058 281.459C466.551 281.802 468.982 280.16 470.325 278.031C471.669 275.902 472.15 273.359 472.605 270.883C475.808 253.45 479.012 236.016 482.215 218.583L475.47 218.679C475.47 218.679 473.001 280.76 440.507 282.311Z" fill="#6776B7"/>
<path opacity="0.15" d="M432.967 233.25C432.548 235.759 432.893 238.324 433.239 240.844C434.008 246.461 434.781 252.088 436.088 257.605C436.311 258.543 436.56 259.504 437.126 260.285C437.693 261.066 438.652 261.635 439.602 261.468C440.222 261.358 440.754 260.955 441.175 260.488C442.908 258.567 442.999 255.706 442.838 253.123C442.489 247.546 441.411 242.015 439.64 236.715C439.043 234.93 438.18 231.859 436.477 230.787C434.517 229.554 433.284 231.356 432.967 233.25Z" fill="white"/>
<path d="M132.454 200.492C132.323 201.016 132.11 201.388 131.88 201.73C131.643 202.06 131.377 202.333 131.084 202.558C130.792 202.785 130.472 202.961 130.117 203.07C129.76 203.175 129.38 203.238 128.913 203.142C128.085 202.97 127.51 202.053 127.628 201.09C127.638 201.009 127.655 200.919 127.674 200.843C127.807 200.321 128.024 199.958 128.266 199.637C128.51 199.322 128.789 199.071 129.096 198.872C129.402 198.672 129.734 198.519 130.097 198.423C130.466 198.339 130.851 198.286 131.318 198.384C132.079 198.546 132.606 199.394 132.493 200.279C132.485 200.349 132.47 200.426 132.454 200.492Z" fill="#3C3C3B"/>
<path d="M122.749 206.966C122.758 207.433 122.67 207.76 122.563 208.061C122.447 208.35 122.294 208.587 122.11 208.78C121.928 208.976 121.712 209.123 121.455 209.213C121.194 209.297 120.906 209.343 120.514 209.244C119.652 209.025 119.046 208.132 119.029 207.148C119.021 206.683 119.115 206.364 119.237 206.083C119.363 205.807 119.529 205.59 119.73 205.42C119.93 205.249 120.16 205.122 120.427 205.045C120.702 204.98 120.996 204.943 121.39 205.044C122.176 205.251 122.729 206.066 122.749 206.966Z" fill="#3C3C3B"/>
<path d="M122.215 200.22C122.045 200.733 121.803 201.086 121.548 201.409C121.286 201.719 120.997 201.97 120.686 202.171C120.375 202.374 120.04 202.522 119.673 202.603C119.305 202.68 118.917 202.71 118.453 202.576C117.639 202.342 117.121 201.387 117.294 200.445C117.31 200.357 117.335 200.263 117.362 200.182C117.533 199.672 117.778 199.327 118.046 199.028C118.314 198.733 118.614 198.505 118.938 198.333C119.261 198.158 119.607 198.032 119.98 197.966C120.359 197.913 120.752 197.891 121.217 198.028C121.964 198.248 122.438 199.129 122.275 199.994C122.259 200.069 122.237 200.15 122.215 200.22Z" fill="#3C3C3B"/>
<path d="M576.003 264.481C575.912 263.948 575.96 263.521 576.033 263.116C576.118 262.72 576.253 262.363 576.431 262.039C576.607 261.714 576.83 261.425 577.111 261.182C577.395 260.942 577.719 260.733 578.185 260.634C579.012 260.459 579.907 261.069 580.184 261.998C580.208 262.076 580.228 262.165 580.241 262.243C580.329 262.774 580.275 263.195 580.182 263.584C580.085 263.971 579.929 264.313 579.728 264.618C579.528 264.924 579.285 265.197 578.991 265.43C578.687 265.655 578.355 265.858 577.887 265.955C577.125 266.113 576.302 265.547 576.051 264.691C576.032 264.623 576.015 264.548 576.003 264.481Z" fill="#3C3C3B"/>
<path d="M582.299 254.659C582.103 254.235 582.053 253.9 582.032 253.581C582.022 253.27 582.066 252.992 582.157 252.74C582.245 252.488 582.384 252.266 582.585 252.081C582.789 251.898 583.036 251.742 583.434 251.676C584.311 251.531 585.224 252.105 585.635 253C585.828 253.422 585.87 253.753 585.87 254.059C585.865 254.362 585.801 254.628 585.685 254.864C585.571 255.102 585.411 255.311 585.197 255.487C584.971 255.657 584.716 255.809 584.315 255.873C583.511 256.001 582.678 255.476 582.299 254.659Z" fill="#3C3C3B"/>
<path d="M585.493 260.625C585.442 260.087 585.522 259.666 585.627 259.268C585.743 258.879 585.907 258.533 586.111 258.224C586.315 257.914 586.563 257.644 586.866 257.423C587.172 257.205 587.516 257.021 587.995 256.957C588.835 256.846 589.693 257.513 589.911 258.446C589.932 258.532 589.946 258.629 589.955 258.713C590.003 259.249 589.915 259.664 589.791 260.044C589.663 260.422 589.48 260.751 589.253 261.039C589.027 261.329 588.76 261.583 588.445 261.793C588.119 261.993 587.768 262.171 587.287 262.233C586.514 262.331 585.727 261.714 585.529 260.854C585.513 260.781 585.5 260.698 585.493 260.625Z" fill="#3C3C3B"/>
</svg>
